# xmcd
#
# Track frame offsets:
#	150
#	14157
#	32675
#	55122
#	67653
#	81217
#	97091
#	111322
#	124477
#	136029
#	148649
#	166130
#
# Disc length: 2430 seconds
# Revision: 0
# Processed by: cddbd v1.5.2PL0 Copyright (c) Steve Scherf et al.
# Submitted via: dBpowerAMP V12.0
#
DISCID=a3097c0c
DTITLE=Nothin Fancy - By Any Other Name
DYEAR=2015
DGENRE=Country
TTITLE0=Love, War and Games
TTITLE1=Blue Tears
TTITLE2=Last Train From Poor Valley
TTITLE3=Stampede
TTITLE4=Sing Hallelujah
TTITLE5=Calvin County Coal Mining Grave
TTITLE6=THe Bluebirds Are Singing For Me
TTITLE7=Wanna-Be Farmer
TTITLE8=Broken Too Soon
TTITLE9=Get To Being Gone
TTITLE10=Silas Brown
TTITLE11=I Probably Should
EXTD=
EXTT0=
EXTT1=
EXTT2=
EXTT3=
EXTT4=
EXTT5=
EXTT6=
EXTT7=
EXTT8=
EXTT9=
EXTT10=
EXTT11=
PLAYORDER=
